{
  "source": "C:\\Users\\Peter\\Desktop\\stuff\\MIUN\\quantitative_research\\video_compression\\videos\\UVG\\Beauty_1920x1080_120fps_420_8bit_YUV.y4m",
  "output": "C:\\Users\\Peter\\Desktop\\stuff\\MIUN\\quantitative_research\\video_compression\\compressed_videos\\UVG\\hevc\\4\\Beauty_1920x1080_120fps_420_8bit_YUV_hevc.mp4",
  "codec": "hevc",
  "ok": "[yuv4mpegpipe @ 0000026cb74c6740] Stream #0: not enough frames to estimate rate; consider increasing probesize\nInput #0, yuv4mpegpipe, from 'C:\\Users\\Peter\\Desktop\\stuff\\MIUN\\quantitative_research\\video_compression\\videos\\UVG\\Beauty_1920x1080_120fps_420_8bit_YUV.y4m':\n  Duration: 00:00:05.00, start: 0.000000, bitrate: 2985989 kb/s\n  Stream #0:0: Video: rawvideo (I420 / 0x30323449), yuv420p(progressive), 1920x1080, 120 fps, 120 tbr, 120 tbn\n[out#0/mp4 @ 0000026cb74c9a80] Codec AVOption b:a (set bitrate (in bits/s)) has not been used for any stream. The most likely reason is either wrong type (e.g. a video option with no video streams) or that it is a private option of some decoder which was not actually used for any stream.\nStream mapping:\n  Stream #0:0 -> #0:0 (rawvideo (native) -> hevc (libx265))\nPress [q] to stop, [?] for help\n[libx265 @ 0000026cb74ccac0] Unknown option: \"aq-mode.\nx265 [info]: HEVC encoder version 4.1+190-8f11c33ac\nx265 [info]: build info [Windows][GCC 15.1.0][64 bit] 10bit\nx265 [info]: using cpu capabilities: MMX2 SSE2Fast LZCNT SSSE3 SSE4.2 AVX FMA3 BMI2 AVX2\nx265 [info]: Main 10 profile, Level-5 (Main tier)\nx265 [info]: Thread pool created using 12 threads\nx265 [info]: Slices                              : 1\nx265 [info]: frame threads / pool features       : 3 / wpp(17 rows)\nx265 [info]: Coding QT: max CU size, min CU size : 64 / 8\nx265 [info]: Residual QT: max TU size, max depth : 32 / 1 inter / 1 intra\nx265 [info]: ME / range / subpel / merge         : star / 57 / 3 / 3\nx265 [info]: Keyframe min / max / scenecut / bias  : 25 / 250 / 40 / 5.00 \nx265 [info]: Lookahead / bframes / badapt        : 25 / 4 / 2\nx265 [info]: b-pyramid / weightp / weightb       : 1 / 1 / 0\nx265 [info]: References / ref-limit  cu / depth  : 4 / on / on\nx265 [info]: AQ: mode / str / qg-size / cu-tree  : 2 / 1.0 / 32 / 1\nx265 [info]: Rate Control / qCompress            : ABR-4000 kbps / 0.60\nx265 [info]: VBV/HRD buffer / max-rate / init    : 4000 / 4000 / 0.750\nx265 [info]: tools: rect limit-modes rd=4 psy-rd=2.00 rdoq=2 psy-rdoq=1.00\nx265 [info]: tools: rskip mode=1 signhide tmvp strong-intra-smoothing lslices=4\nx265 [info]: tools: deblock sao dhdr10-info\nOutput #0, mp4, to 'C:\\Users\\Peter\\Desktop\\stuff\\MIUN\\quantitative_research\\video_compression\\compressed_videos\\UVG\\hevc\\4\\Beauty_1920x1080_120fps_420_8bit_YUV_hevc.mp4':\n  Metadata:\n    encoder         : Lavf62.3.100\n  Stream #0:0: Video: hevc (hev1 / 0x31766568), yuv420p10le(tv, progressive), 1920x1080, q=2-31, 4000 kb/s, 120 fps, 15360 tbn\n    Metadata:\n      encoder         : Lavc62.11.100 libx265\n    Side data:\n      cpb: bitrate max/min/avg: 4000000/0/4000000 buffer size: 4000000 vbv_delay: N/A\nframe=    0 fps=0.0 q=0.0 size=       0KiB time=N/A bitrate=N/A speed=N/A elapsed=0:00:00.50    \nframe=    7 fps=6.9 q=40.4 size=       0KiB time=00:00:00.04 bitrate=   8.4kbits/s speed=0.041x elapsed=0:00:01.01    \nframe=   14 fps=9.1 q=39.1 size=       0KiB time=00:00:00.10 bitrate=   3.5kbits/s speed=0.0652x elapsed=0:00:01.53    \nframe=   20 fps=9.7 q=38.8 size=       0KiB time=00:00:00.15 bitrate=   2.3kbits/s speed=0.0729x elapsed=0:00:02.05    \nframe=   26 fps= 10 q=39.1 size=       0KiB time=00:00:00.20 bitrate=   1.8kbits/s speed=0.0779x elapsed=0:00:02.56    \nframe=   31 fps= 10 q=39.3 size=       0KiB time=00:00:00.24 bitrate=   1.5kbits/s speed=0.0783x elapsed=0:00:03.08    \nframe=   37 fps= 10 q=34.6 size=       0KiB time=00:00:00.29 bitrate=   1.2kbits/s speed=0.0811x elapsed=0:00:03.59    \nframe=   43 fps= 10 q=36.6 size=       0KiB time=00:00:00.34 bitrate=   1.0kbits/s speed=0.083x elapsed=0:00:04.11    \nframe=   49 fps= 11 q=37.7 size=       0KiB time=00:00:00.39 bitrate=   0.9kbits/s speed=0.0844x elapsed=0:00:04.63    \nframe=   54 fps= 10 q=37.9 size=       0KiB time=00:00:00.43 bitrate=   0.8kbits/s speed=0.0843x elapsed=0:00:05.14    \nframe=   60 fps= 11 q=37.2 size=       0KiB time=00:00:00.48 bitrate=   0.7kbits/s speed=0.0854x elapsed=0:00:05.66    \nframe=   66 fps= 11 q=37.3 size=       0KiB time=00:00:00.53 bitrate=   0.7kbits/s speed=0.0864x elapsed=0:00:06.17    \nframe=   71 fps= 11 q=36.9 size=       0KiB time=00:00:00.57 bitrate=   0.6kbits/s speed=0.0859x elapsed=0:00:06.69    \nframe=   77 fps= 11 q=33.5 size=     256KiB time=00:00:00.62 bitrate=3356.0kbits/s speed=0.0867x elapsed=0:00:07.20    \nframe=   82 fps= 11 q=33.8 size=     256KiB time=00:00:00.66 bitrate=3146.3kbits/s speed=0.0863x elapsed=0:00:07.72    \nframe=   87 fps= 11 q=33.7 size=     256KiB time=00:00:00.70 bitrate=2961.2kbits/s speed=0.086x elapsed=0:00:08.23    \nframe=   92 fps= 11 q=33.6 size=     256KiB time=00:00:00.75 bitrate=2796.7kbits/s speed=0.0857x elapsed=0:00:08.75    \nframe=   97 fps= 10 q=33.7 size=     256KiB time=00:00:00.79 bitrate=2649.5kbits/s speed=0.0854x elapsed=0:00:09.26    \nframe=  102 fps= 10 q=34.0 size=     256KiB time=00:00:00.83 bitrate=2517.0kbits/s speed=0.0852x elapsed=0:00:09.78    \nframe=  107 fps= 10 q=34.3 size=     256KiB time=00:00:00.87 bitrate=2397.1kbits/s speed=0.0849x elapsed=0:00:10.30    \nframe=  112 fps= 10 q=33.9 size=     256KiB time=00:00:00.91 bitrate=2288.2kbits/s speed=0.0847x elapsed=0:00:10.81    \nframe=  117 fps= 10 q=34.0 size=     256KiB time=00:00:00.95 bitrate=2188.7kbits/s speed=0.0846x elapsed=0:00:11.32    \nframe=  122 fps= 10 q=34.4 size=     256KiB time=00:00:01.00 bitrate=2097.5kbits/s speed=0.0844x elapsed=0:00:11.84    \nframe=  128 fps= 10 q=35.9 size=     256KiB time=00:00:01.05 bitrate=1997.6kbits/s speed=0.0849x elapsed=0:00:12.36    \nframe=  133 fps= 10 q=35.7 size=     512KiB time=00:00:01.09 bitrate=3842.4kbits/s speed=0.0848x elapsed=0:00:12.87    \nframe=  138 fps= 10 q=35.6 size=     512KiB time=00:00:01.13 bitrate=3701.2kbits/s speed=0.0846x elapsed=0:00:13.40    \nframe=  143 fps= 10 q=35.6 size=     512KiB time=00:00:01.17 bitrate=3569.9kbits/s speed=0.0844x elapsed=0:00:13.91    \nframe=  148 fps= 10 q=35.7 size=     512KiB time=00:00:01.21 bitrate=3447.7kbits/s speed=0.0844x elapsed=0:00:14.42    \nframe=  154 fps= 10 q=36.8 size=     512KiB time=00:00:01.26 bitrate=3311.6kbits/s speed=0.0848x elapsed=0:00:14.94    \nframe=  159 fps= 10 q=36.0 size=     512KiB time=00:00:01.30 bitrate=3206.1kbits/s speed=0.0846x elapsed=0:00:15.46    \nframe=  164 fps= 10 q=35.8 size=     512KiB time=00:00:01.35 bitrate=3107.2kbits/s speed=0.0845x elapsed=0:00:15.97    \nframe=  169 fps= 10 q=35.8 size=     512KiB time=00:00:01.39 bitrate=3014.1kbits/s speed=0.0844x elapsed=0:00:16.48    \nframe=  174 fps= 10 q=36.1 size=     512KiB time=00:00:01.43 bitrate=2926.5kbits/s speed=0.0843x elapsed=0:00:17.00    \nframe=  179 fps= 10 q=36.6 size=     512KiB time=00:00:01.47 bitrate=2843.8kbits/s speed=0.0842x elapsed=0:00:17.52    \nframe=  184 fps= 10 q=35.8 size=     512KiB time=00:00:01.51 bitrate=2765.7kbits/s speed=0.0841x elapsed=0:00:18.04    \nframe=  189 fps= 10 q=35.6 size=     512KiB time=00:00:01.55 bitrate=2691.8kbits/s speed=0.084x elapsed=0:00:18.55    \nframe=  194 fps= 10 q=35.9 size=     512KiB time=00:00:01.60 bitrate=2621.7kbits/s speed=0.0839x elapsed=0:00:19.06    \nframe=  199 fps= 10 q=36.4 size=     768KiB time=00:00:01.64 bitrate=3832.6kbits/s speed=0.0838x elapsed=0:00:19.58    \nframe=  204 fps= 10 q=36.3 size=     768KiB time=00:00:01.68 bitrate=3737.7kbits/s speed=0.0837x elapsed=0:00:20.10    \nframe=  208 fps= 10 q=35.3 size=     768KiB time=00:00:01.71 bitrate=3665.1kbits/s speed=0.0833x elapsed=0:00:20.61    \nframe=  213 fps= 10 q=35.4 size=     768KiB time=00:00:01.75 bitrate=3578.3kbits/s speed=0.0832x elapsed=0:00:21.12    \nframe=  217 fps= 10 q=33.4 size=     768KiB time=00:00:01.79 bitrate=3511.7kbits/s speed=0.0828x elapsed=0:00:21.64    \nframe=  222 fps= 10 q=33.5 size=     768KiB time=00:00:01.83 bitrate=3431.9kbits/s speed=0.0827x elapsed=0:00:22.16    \nframe=  227 fps= 10 q=33.5 size=     768KiB time=00:00:01.87 bitrate=3355.6kbits/s speed=0.0827x elapsed=0:00:22.68    \nframe=  232 fps= 10 q=33.6 size=     768KiB time=00:00:01.91 bitrate=3282.7kbits/s speed=0.0827x elapsed=0:00:23.18    \nframe=  238 fps= 10 q=35.7 size=     768KiB time=00:00:01.96 bitrate=3199.2kbits/s speed=0.083x elapsed=0:00:23.70    \nframe=  245 fps= 10 q=36.9 size=     768KiB time=00:00:02.02 bitrate=3107.1kbits/s speed=0.0836x elapsed=0:00:24.21    \nframe=  253 fps= 10 q=35.8 size=     768KiB time=00:00:02.09 bitrate=3008.0kbits/s speed=0.0846x elapsed=0:00:24.73    \nframe=  260 fps= 10 q=37.1 size=    1024KiB time=00:00:02.15 bitrate=3901.8kbits/s speed=0.0851x elapsed=0:00:25.25    \nframe=  266 fps= 10 q=37.5 size=    1024KiB time=00:00:02.20 bitrate=3813.2kbits/s speed=0.0854x elapsed=0:00:25.77    \nframe=  273 fps= 10 q=35.9 size=    1024KiB time=00:00:02.25 bitrate=3714.7kbits/s speed=0.0859x elapsed=0:00:26.28    \nframe=  279 fps= 10 q=37.2 size=    1024KiB time=00:00:02.30 bitrate=3634.2kbits/s speed=0.0861x elapsed=0:00:26.80    \nframe=  284 fps= 10 q=37.2 size=    1024KiB time=00:00:02.35 bitrate=3569.8kbits/s speed=0.086x elapsed=0:00:27.32    \nframe=  291 fps= 10 q=37.3 size=    1024KiB time=00:00:02.40 bitrate=3483.3kbits/s speed=0.0865x elapsed=0:00:27.82    \nframe=  297 fps= 10 q=33.6 size=    1024KiB time=00:00:02.45 bitrate=3412.5kbits/s speed=0.0867x elapsed=0:00:28.34    \nframe=  304 fps= 11 q=37.2 size=    1024KiB time=00:00:02.51 bitrate=3333.4kbits/s speed=0.0872x elapsed=0:00:28.86    \nframe=  311 fps= 11 q=37.4 size=    1024KiB time=00:00:02.57 bitrate=3257.8kbits/s speed=0.0876x elapsed=0:00:29.38    \nframe=  318 fps= 11 q=35.7 size=    1280KiB time=00:00:02.63 bitrate=3982.1kbits/s speed=0.0881x elapsed=0:00:29.89    \nframe=  324 fps= 11 q=36.9 size=    1280KiB time=00:00:02.68 bitrate=3907.9kbits/s speed=0.0882x elapsed=0:00:30.41    \nframe=  330 fps= 11 q=36.6 size=    1280KiB time=00:00:02.73 bitrate=3836.4kbits/s speed=0.0884x elapsed=0:00:30.93    \nframe=  337 fps= 11 q=33.3 size=    1280KiB time=00:00:02.79 bitrate=3756.2kbits/s speed=0.0888x elapsed=0:00:31.43    \nframe=  344 fps= 11 q=36.9 size=    1280KiB time=00:00:02.85 bitrate=3679.3kbits/s speed=0.0892x elapsed=0:00:31.96    \nframe=  350 fps= 11 q=37.0 size=    1280KiB time=00:00:02.90 bitrate=3615.9kbits/s speed=0.0893x elapsed=0:00:32.47    \nframe=  356 fps= 11 q=36.9 size=    1280KiB time=00:00:02.95 bitrate=3554.6kbits/s speed=0.0894x elapsed=0:00:32.98    \nframe=  364 fps= 11 q=36.7 size=    1280KiB time=00:00:03.01 bitrate=3476.1kbits/s speed=0.09x elapsed=0:00:33.50    \nframe=  370 fps= 11 q=36.7 size=    1280KiB time=00:00:03.06 bitrate=3419.4kbits/s speed=0.0901x elapsed=0:00:34.02    \nframe=  377 fps= 11 q=33.2 size=    1280KiB time=00:00:03.12 bitrate=3355.6kbits/s speed=0.0904x elapsed=0:00:34.54    \nframe=  384 fps= 11 q=36.8 size=    1536KiB time=00:00:03.18 bitrate=3952.9kbits/s speed=0.0908x elapsed=0:00:35.06    \nframe=  389 fps= 11 q=36.9 size=    1536KiB time=00:00:03.22 bitrate=3901.8kbits/s speed=0.0906x elapsed=0:00:35.58    \nframe=  396 fps= 11 q=36.8 size=    1536KiB time=00:00:03.28 bitrate=3832.5kbits/s speed=0.0909x elapsed=0:00:36.10    \nframe=  402 fps= 11 q=33.3 size=    1536KiB time=00:00:03.33 bitrate=3775.0kbits/s speed=0.091x elapsed=0:00:36.61    \nframe=  409 fps= 11 q=36.7 size=    1536KiB time=00:00:03.39 bitrate=3710.1kbits/s speed=0.0913x elapsed=0:00:37.13    \nframe=  415 fps= 11 q=37.0 size=    1536KiB time=00:00:03.44 bitrate=3656.2kbits/s speed=0.0914x elapsed=0:00:37.64    \nframe=  421 fps= 11 q=37.1 size=    1536KiB time=00:00:03.49 bitrate=3603.8kbits/s speed=0.0915x elapsed=0:00:38.16    \nframe=  428 fps= 11 q=35.5 size=    1536KiB time=00:00:03.55 bitrate=3544.6kbits/s speed=0.0918x elapsed=0:00:38.68    \nframe=  434 fps= 11 q=36.8 size=    1536KiB time=00:00:03.60 bitrate=3495.4kbits/s speed=0.0919x elapsed=0:00:39.18    \nframe=  441 fps= 11 q=36.8 size=    1792KiB time=00:00:03.65 bitrate=4012.9kbits/s speed=0.0921x elapsed=0:00:39.71    \nframe=  447 fps= 11 q=33.6 size=    1792KiB time=00:00:03.70 bitrate=3958.8kbits/s speed=0.0922x elapsed=0:00:40.23    \nframe=  454 fps= 11 q=37.4 size=    1792KiB time=00:00:03.76 bitrate=3897.5kbits/s speed=0.0924x elapsed=0:00:40.75    \nframe=  460 fps= 11 q=37.2 size=    1792KiB time=00:00:03.81 bitrate=3846.4kbits/s speed=0.0925x elapsed=0:00:41.26    \nframe=  468 fps= 11 q=35.5 size=    1792KiB time=00:00:03.88 bitrate=3780.4kbits/s speed=0.0929x elapsed=0:00:41.79    \nframe=  475 fps= 11 q=37.1 size=    1792KiB time=00:00:03.94 bitrate=3724.4kbits/s speed=0.0931x elapsed=0:00:42.32    \nframe=  481 fps= 11 q=36.8 size=    1792KiB time=00:00:03.99 bitrate=3677.8kbits/s speed=0.0932x elapsed=0:00:42.82    \nframe=  488 fps= 11 q=35.5 size=    1792KiB time=00:00:04.05 bitrate=3624.8kbits/s speed=0.0934x elapsed=0:00:43.35    \nframe=  494 fps= 11 q=36.9 size=    1792KiB time=00:00:04.10 bitrate=3580.6kbits/s speed=0.0935x elapsed=0:00:43.87    \nframe=  502 fps= 11 q=33.4 size=    2048KiB time=00:00:04.16 bitrate=4026.6kbits/s speed=0.0939x elapsed=0:00:44.38    \nframe=  509 fps= 11 q=36.8 size=    2048KiB time=00:00:04.22 bitrate=3971.0kbits/s speed=0.0941x elapsed=0:00:44.89    \nframe=  516 fps= 11 q=36.7 size=    2048KiB time=00:00:04.28 bitrate=3916.9kbits/s speed=0.0943x elapsed=0:00:45.40    \nframe=  523 fps= 11 q=35.7 size=    2048KiB time=00:00:04.34 bitrate=3864.3kbits/s speed=0.0945x elapsed=0:00:45.92    \nframe=  531 fps= 11 q=36.9 size=    2048KiB time=00:00:04.40 bitrate=3805.9kbits/s speed=0.0949x elapsed=0:00:46.44    \nframe=  538 fps= 11 q=35.6 size=    2048KiB time=00:00:04.46 bitrate=3756.2kbits/s speed=0.0951x elapsed=0:00:46.95    \nframe=  545 fps= 11 q=36.8 size=    2048KiB time=00:00:04.52 bitrate=3707.7kbits/s speed=0.0953x elapsed=0:00:47.46    \nframe=  553 fps= 12 q=35.4 size=    2048KiB time=00:00:04.59 bitrate=3653.9kbits/s speed=0.0957x elapsed=0:00:47.98    \nframe=  560 fps= 12 q=36.8 size=    2048KiB time=00:00:04.65 bitrate=3608.1kbits/s speed=0.0959x elapsed=0:00:48.50    \nframe=  567 fps= 12 q=33.4 size=    2048KiB time=00:00:04.70 bitrate=3563.4kbits/s speed=0.096x elapsed=0:00:49.02    \nframe=  573 fps= 12 q=35.5 size=    2304KiB time=00:00:04.75 bitrate=3966.7kbits/s speed=0.0961x elapsed=0:00:49.53    \nframe=  580 fps= 12 q=36.8 size=    2304KiB time=00:00:04.81 bitrate=3918.6kbits/s speed=0.0962x elapsed=0:00:50.04    \nframe=  588 fps= 12 q=35.4 size=    2304KiB time=00:00:04.88 bitrate=3865.1kbits/s speed=0.0966x elapsed=0:00:50.57    \nframe=  595 fps= 12 q=36.6 size=    2304KiB time=00:00:04.94 bitrate=3819.5kbits/s speed=0.0967x elapsed=0:00:51.08    \n[mp4 @ 0000026cb74c9b80] Starting second pass: moving the moov atom to the beginning of the file\n[out#0/mp4 @ 0000026cb74c9a80] video:2427KiB audio:0KiB subtitle:0KiB other streams:0KiB global headers:2KiB muxing overhead: 0.412881%\nframe=  600 fps= 12 q=36.9 Lsize=    2437KiB time=00:00:04.98 bitrate=4005.3kbits/s speed=0.0971x elapsed=0:00:51.31    \nx265 [info]: frame I:      3, Avg QP:36.08  kb/s: 11441.28\nx265 [info]: frame P:    118, Avg QP:33.76  kb/s: 8376.63 \nx265 [info]: frame B:    479, Avg QP:36.84  kb/s: 2839.83 \nx265 [info]: Weighted P-Frames: Y:0.0% UV:0.0%\n\nencoded 600 frames in 51.27s (11.70 fps), 3971.74 kb/s, Avg QP:36.23\n",
  "seconds": 51.40455651283264,
  "probe_out": {}
}